<svg preserveAspectRatio="xMidYMid meet" data-bbox="22.2 19.7 193.6 193.6" viewBox="22.2 19.7 193.6 193.6" xmlns="http://www.w3.org/2000/svg" data-type="color" role="presentation" aria-hidden="true">
    <g>
        <path fill="#accc94" d="M215.8 116.5c0 53.461-43.339 96.8-96.8 96.8s-96.8-43.339-96.8-96.8S65.539 19.7 119 19.7s96.8 43.339 96.8 96.8z" data-color="1"></path>
        <path d="M120.2 43.1c-1.3 0-2.4 1.1-2.4 2.4v14c0 1.3 1.1 2.4 2.4 2.4s2.4-1.1 2.4-2.4v-14c-.1-1.4-1.1-2.4-2.4-2.4z" fill="#ffffff" data-color="2"></path>
        <path d="M106.8 63.2l-5.6-5.6c-.9-.9-2.4-.9-3.3 0-.9.9-.9 2.4 0 3.3l5.6 5.6c.5.5 1.1.7 1.7.7.6 0 1.2-.2 1.7-.7.8-.9.8-2.4-.1-3.3z" fill="#ffffff" data-color="2"></path>
        <path d="M142.5 57.6c-.9-.9-2.4-.9-3.3 0l-6 6c-.9.9-.9 2.4 0 3.3.5.5 1.1.7 1.7.7.6 0 1.2-.2 1.7-.7l6-6c.8-.9.8-2.4-.1-3.3z" fill="#ffffff" data-color="2"></path>
        <path d="M165.1 105.3h-1.9c1.6-2 2.5-4.6 2.5-7.3v-3.3c0-6.6-5.4-12-12-12s-12 5.4-12 12v2.6L124 79.6c-1-1-2.4-1.3-3.7-.8-1.3-.5-2.7-.2-3.7.8L98.7 97.3v-2.6c0-6.6-5.4-12-12-12s-12 5.4-12 12V98c0 2.7.9 5.3 2.5 7.3h-1.9c-8.5 0-15.4 6.9-15.4 15.4V152c0 1.3 1.1 2.4 2.4 2.4h10c.2 0 .5 0 .7-.1.2.1.4.1.7.1h26.4c1.3 0 2.4-1.1 2.4-2.4v-8c0-1.3-1.1-2.4-2.4-2.4-1.3 0-2.4 1.1-2.4 2.4v5.7H75.9v-26.9c0-1.3-1.1-2.4-2.4-2.4s-2.4 1.1-2.4 2.4v26.9h-6.6v-28.9c0-5.9 4.8-10.7 10.7-10.7h16.4c.6 0 1.2-.3 1.7-.7l24.5-24.5c-.2 4.9-1.7 9.6-4.4 13.7L98 121.4c-.3.4-.4.8-.4 1.3v2.6c0 1.3 1.1 2.4 2.4 2.4 1.3 0 2.4-1.1 2.4-2.4v-1.9l15-22.3c1.1-1.7 2.1-3.5 2.9-5.4.8 1.9 1.7 3.7 2.9 5.4l15 22.3V152c0 1.3 1.1 2.4 2.4 2.4H167c.2 0 .5 0 .7-.1.2.1.4.1.7.1h10c1.3 0 2.4-1.1 2.4-2.4v-31.2c-.3-8.6-7.2-15.5-15.7-15.5zM94 98c0 4-3.3 7.3-7.3 7.3s-7.3-3.3-7.3-7.3v-3.3c0-4 3.3-7.3 7.3-7.3s7.3 3.3 7.3 7.3V98zm52.4-3.3c0-4 3.3-7.3 7.3-7.3s7.3 3.3 7.3 7.3V98c0 4-3.3 7.3-7.3 7.3s-7.3-3.3-7.3-7.3v-3.3zm29.4 54.9h-6.6v-17.4c0-1.3-1.1-2.4-2.4-2.4s-2.4 1.1-2.4 2.4v17.4h-21.7v-26.9c0-.5-.1-.9-.4-1.3L127 98.5c-2.7-4.1-4.3-8.8-4.4-13.7l24.5 24.5.1.1c.4.4 1 .6 1.6.6h16.4c5.9 0 10.7 4.8 10.7 10.7v28.9h-.1z" fill="#ffffff" data-color="2"></path>
        <path d="M168.5 121.1c-.4-.4-1-.7-1.7-.7-.6 0-1.2.3-1.7.7s-.7 1-.7 1.7.3 1.2.7 1.7c.4.4 1 .7 1.7.7.6 0 1.2-.3 1.7-.7.4-.4.7-1 .7-1.7s-.2-1.3-.7-1.7z" fill="#ffffff" data-color="2"></path>
        <path d="M101.6 133.6c-.4-.4-1-.7-1.7-.7-.6 0-1.2.2-1.7.7-.4.4-.7 1-.7 1.7 0 .6.3 1.2.7 1.7.4.4 1 .7 1.7.7.6 0 1.2-.3 1.7-.7a2.413 2.413 0 0 0 0-3.4z" fill="#ffffff" data-color="2"></path>
    </g>
</svg>