<svg preserveAspectRatio="xMidYMid meet" data-bbox="25.9 18 193.6 193.6" viewBox="25.9 18 193.6 193.6" xmlns="http://www.w3.org/2000/svg" data-type="color" role="presentation" aria-hidden="true">
    <g>
        <path fill="#accc94" d="M219.5 114.8c0 53.461-43.339 96.8-96.8 96.8s-96.8-43.339-96.8-96.8S69.239 18 122.7 18s96.8 43.339 96.8 96.8z" data-color="1"></path>
        <path d="M161.6 77.9h-24.9c-.7 0-1.4.1-2.1.4V67.8c0-3.4-2.8-6.2-6.2-6.2h-17.5c-3.4 0-6.2 2.8-6.2 6.2v47.5c-3.2.3-6.3 1.4-8.9 3.3.8-2.8 2.3-5.4 4.4-7.6.8-.8.8-2.1 0-2.9-.6-.6-1.6-.8-2.3-.4-.5-2.5-1.8-4.8-3.6-6.7-3.4-3.4-8.5-4.7-13.2-3.4-.7.2-1.2.7-1.4 1.4-1.4 4.7-.1 9.7 3.4 13.2 2.5 2.5 5.8 3.8 9.2 3.9-.4 1-.7 2.1-.8 3.2l-.3-.2c-3.4-2.7-7.8-4.1-12.1-3.9-4.4.2-8.5 2-11.7 5-5.5 5.2-7.3 13.4-4.3 20.5l1.4 3.2c2.7 6.4 6.1 12.3 10.2 17.6.2.2.4.5.6.7l1.2 1.5c2.2 2.7 5.4 4.3 9 4.3 2.9 0 5.8-1.1 7.9-3.2 2.1 2 5 3.2 7.9 3.2 2.1 0 4.1-.6 5.8-1.6 1.1 1 2.6 1.6 4.2 1.6h17.5c1.6 0 3.1-.6 4.2-1.6 1.1 1 2.6 1.6 4.2 1.6h24.9c3.4 0 6.2-2.8 6.2-6.2V84.1c-.4-3.4-3.2-6.2-6.7-6.2zM136.7 82h24.9c1.1 0 2.1.9 2.1 2.1v5.3h-29.1v-5.3c0-1.1.9-2.1 2.1-2.1zm-17.8 38.3c-2.8-2.6-6.3-4.3-10-4.8V79.1h21.6v71.5h-11.8c1.1-2.1 2.2-4.4 3.2-6.6l1.4-3.2c2.8-7.1 1.1-15.3-4.4-20.5zm-8-54.5h17.5c1.1 0 2.1.9 2.1 2.1V75h-21.6v-7.1c-.1-1.2.9-2.1 2-2.1zm-27.6 35.6c2.9-.4 5.8.5 7.9 2.6 2.1 2.1 3 5 2.6 7.9-2.9.4-5.8-.5-7.9-2.6-2.1-2.1-3-5-2.6-7.9zm17.6 62.5c-1.9 0-3.8-.8-5.2-2.2-.7-.7-1.7-1.1-2.7-1.1s-2 .4-2.7 1.1c-1.4 1.4-3.3 2.2-5.2 2.2-2.2 0-4.3-1-5.7-2.7l-1.2-1.5c-.2-.2-.4-.5-.5-.7-3.9-5-7.1-10.6-9.7-16.7l-1.4-3.2c-2.3-5.4-.9-11.8 3.3-15.8 5.1-4.8 12.9-5.2 18.4-.8l2.9 2.3c.4.5 1 .8 1.6.8s1.3-.3 1.6-.8l2.9-2.3c5.5-4.3 13.3-4 18.4.8 4.3 4 5.6 10.4 3.3 15.8l-1.4 3.2c-1.2 2.9-2.6 5.6-4.1 8.3h-6.7c-1.1 0-2.1.9-2.1 2.1s.9 2.1 2.1 2.1h4.1c-1 1.5-2 2.9-3.1 4.3-.2.2-.4.5-.5.7l-1.2 1.5c-.9 1.6-3 2.6-5.2 2.6zm27.5 0h-17.5c-.4 0-.7-.1-1-.2l1.1-1.4c.2-.2.4-.5.6-.7 1.7-2.2 3.2-4.4 4.7-6.8h14.2v7.1c-.1 1.1-1 2-2.1 2zm33.2 0h-24.9c-1.1 0-2.1-.9-2.1-2.1V93.6h29.1v58.8h-15.8c-1.1 0-2.1.9-2.1 2.1 0 1.1.9 2.1 2.1 2.1h15.8v5.3c0 1.1-.9 2-2.1 2z" fill="#ffffff" data-color="2"></path>
        <path d="M140.4 152.3c-.5 0-1.1.2-1.5.6-.4.4-.6.9-.6 1.5s.2 1.1.6 1.5c.4.4.9.6 1.5.6s1.1-.2 1.5-.6c.4-.4.6-.9.6-1.5s-.2-1.1-.6-1.5c-.4-.3-.9-.6-1.5-.6z" fill="#ffffff" data-color="2"></path>
        <path d="M141.7 135h14.9c1.1 0 2.1-.9 2.1-2.1s-.9-2.1-2.1-2.1h-14.9c-1.1 0-2.1.9-2.1 2.1s1 2.1 2.1 2.1z" fill="#ffffff" data-color="2"></path>
        <path d="M141.7 125h14.9c1.1 0 2.1-.9 2.1-2.1 0-1.1-.9-2.1-2.1-2.1h-14.9c-1.1 0-2.1.9-2.1 2.1 0 1.2 1 2.1 2.1 2.1z" fill="#ffffff" data-color="2"></path>
        <path d="M141.7 115.1h14.9c1.1 0 2.1-.9 2.1-2.1s-.9-2.1-2.1-2.1h-14.9c-1.1 0-2.1.9-2.1 2.1s1 2.1 2.1 2.1z" fill="#ffffff" data-color="2"></path>
    </g>
</svg>