<svg preserveAspectRatio="xMidYMid meet" data-bbox="23.6 17.3 193.6 193.6" viewBox="23.6 17.3 193.6 193.6" height="231" width="243" xmlns="http://www.w3.org/2000/svg" data-type="color" role="presentation" aria-hidden="true">
    <g>
        <path fill="#70bf44" d="M217.2 114.1c0 53.461-43.339 96.8-96.8 96.8s-96.8-43.339-96.8-96.8 43.339-96.8 96.8-96.8 96.8 43.339 96.8 96.8z" data-color="1"></path>
        <path d="M150.1 86.8h-12.2c-7.6 0-13.7 6.2-13.7 13.7V128h7.6v19.1c0 3.8 3.1 6.9 6.9 6.9h10.7c3.8 0 6.9-3.1 6.9-6.9V128h7.6v-27.5c0-7.5-6.2-13.7-13.8-13.7zm6.1 38.2v-19.9h-3.1v42c0 2.1-1.7 3.8-3.8 3.8h-3.8v-18.5h-3.1V151h-3.8c-2.1 0-3.8-1.7-3.8-3.8v-42h-3.1V125h-4.6v-24.5c0-5.9 4.8-10.7 10.7-10.7H150c5.9 0 10.7 4.8 10.7 10.7V125h-4.5z" fill="#ffffff" data-color="2"></path>
        <path d="M144 59.3c-6.7 0-12.2 5.5-12.2 12.2 0 6.8 5.5 12.2 12.2 12.2 6.7 0 12.2-5.5 12.2-12.2 0-6.7-5.5-12.2-12.2-12.2zm0 21.4c-5.1 0-9.2-4.1-9.2-9.2s4.1-9.2 9.2-9.2 9.2 4.1 9.2 9.2-4.2 9.2-9.2 9.2z" fill="#ffffff" data-color="2"></path>
        <path d="M69.1 126.5V154h15.3v-27.5H69.1zM81.3 151h-9.2v-21.4h9.2V151z" fill="#ffffff" data-color="2"></path>
        <path d="M87.4 111.2V154h15.3v-42.8H87.4zM99.7 151h-9.2v-36.7h9.2V151z" fill="#ffffff" data-color="2"></path>
        <path d="M105.8 96v58h15.3V96h-15.3zm12.2 55h-9.2V99h9.2v52z" fill="#ffffff" data-color="2"></path>
        <path fill="#ffffff" d="M90.5 71.7l4.3 4.3-19.5 19.4 2.2 2.2L99.1 76 97 73.8l10-1.4-1.4 10.1-2.2-2.2-21.6 21.6 2.2 2.2 19.4-19.5 4.4 4.4 2.8-20.2-20.1 2.9z" data-color="2"></path>
    </g>
</svg>