<svg xmlns="http://www.w3.org/2000/svg" xmlns:xlink="http://www.w3.org/1999/xlink" viewBox="0,0,256,256" width="48px" height="48px" fill-rule="none" fill="#0c74bc"><g fill="#0c74bc" fill-rule="none" stroke="none" stroke-width="1" stroke-linecap="butt" stroke-linejoin="miter" stroke-miterlimit="10" stroke-dasharray="" stroke-dashoffset="0" font-family="none" font-weight="none" font-size="none" text-anchor="none" style="mix-blend-mode: normal"><g transform="scale(4,4)"><path d="M35,50.618l-6,0.882v-14.5h-4v-5.029h4c0,0 0,-2.572 0,-5.226c0,-1.524 0.605,-2.985 1.683,-4.062c1.077,-1.078 2.538,-1.683 4.062,-1.683h4.255v4c0,0 -0.827,0 -1.73,0c-1.254,0 -2.27,1.016 -2.27,2.27v4.73l6,-0.029l-2,5.029h-4z" fill-rule="evenodd"></path><path d="M32,54c-12.131,0 -22,-9.869 -22,-22c0,-12.131 9.869,-22 22,-22c12.131,0 22,9.869 22,22c0,12.131 -9.869,22 -22,22zM32,14c-9.925,0 -18,8.075 -18,18c0,9.925 8.075,18 18,18c9.925,0 18,-8.075 18,-18c0,-9.925 -8.075,-18 -18,-18z" fill-rule="nonzero"></path></g></g></svg>